<svg width="353" height="46" viewBox="0 0 353 46" fill="none" xmlns="http://www.w3.org/2000/svg">
<path d="M37.2377 29.5951H28.2422L27.0716 32.4707H24.4938L31.6658 15.4459H33.529L41.0329 32.4707H38.3784L37.2377 29.5951ZM36.3961 27.3235L32.5854 19.3007L29.173 27.3235H36.3961Z" fill="#B82125"/>
<path d="M44.2489 15.4459H58.3633V17.7182H52.595V32.4707H50.0427V17.7182H44.2489V15.4459Z" fill="#B82125"/>
<path d="M65.28 15.4459H69.4659C70.9292 15.4459 72.1033 15.7189 72.9881 16.2627C74.4004 17.1312 75.1065 18.4577 75.1065 20.2443C75.1065 22.2692 74.1962 23.6226 72.3755 24.3025C72.9711 24.7109 73.5708 25.3327 74.1749 26.1664C74.7789 27.0002 75.7361 28.5231 77.0463 30.7344C77.3185 31.1938 77.7354 31.7731 78.2969 32.47H75.3362C75.2504 32.3346 75.1108 32.1126 74.9151 31.8057C74.7194 31.4994 74.2727 30.7932 73.5751 29.6879C72.2309 27.544 71.261 26.2295 70.6654 25.7446C70.0699 25.2589 69.1255 25.0257 67.8324 25.0427V32.47H65.28V15.4459ZM67.8324 22.7711H69.2617C71.4056 22.7711 72.4776 21.9289 72.4776 20.245C72.4776 19.4623 72.2181 18.8455 71.6991 18.3946C71.1802 17.9444 70.4613 17.7189 69.5424 17.7189H67.8324V22.7711Z" fill="#B82125"/>
<path d="M87.6895 32.4707H85.1372V15.4459H87.6895V32.4707Z" fill="#B82125"/>
<path d="M109.766 15.4459H112.319V32.4707H110.099L99.0721 19.4283V32.4707H96.5198V15.4459H98.8424L109.766 28.4125L109.766 15.4459Z" fill="#B82125"/>
<path d="M123.701 32.4707H121.149V15.4459H123.701V32.4707Z" fill="#B82125"/>
<path d="M149.582 33.7469L147.004 35.917C145.881 35.9333 144.426 35.5725 142.64 34.8323C140.852 34.0921 139.534 33.3052 138.684 32.4714C136.523 32.046 134.804 31.0641 133.528 29.5235C132.252 27.9843 131.614 26.1246 131.614 23.9466C131.614 21.429 132.469 19.3489 134.179 17.7062C135.889 16.0649 138.055 15.2432 140.674 15.2432C143.295 15.2432 145.46 16.0642 147.17 17.7062C148.88 19.3482 149.735 21.429 149.735 23.9466C149.735 26.0573 149.118 27.8822 147.885 29.4221C146.651 30.962 145.022 31.9616 142.997 32.4203C143.405 32.7273 144.133 33.0287 145.179 33.3264C146.226 33.6242 147.097 33.7731 147.795 33.7731C148.356 33.7731 148.884 33.671 149.377 33.4668L149.582 33.7469ZM140.674 17.6672C138.752 17.6672 137.2 18.25 136.017 19.4155C134.834 20.5811 134.243 22.1082 134.243 23.997C134.243 25.8346 134.834 27.337 136.017 28.5018C137.2 29.6681 138.718 30.2509 140.573 30.2509C142.53 30.2509 144.108 29.6723 145.307 28.5153C146.507 27.3582 147.107 25.8353 147.107 23.9466C147.107 22.0926 146.511 20.5818 145.32 19.4162C144.128 18.25 142.58 17.6672 140.674 17.6672Z" fill="#B82125"/>
<path d="M157.544 15.4459H160.096V25.8857C160.096 26.7372 160.181 27.4008 160.352 27.8772C160.521 28.3536 160.844 28.8053 161.321 29.2299C162.155 29.9949 163.303 30.3778 164.766 30.3778C166.213 30.3778 167.353 29.9949 168.186 29.2299C168.663 28.8046 168.986 28.3536 169.156 27.8772C169.326 27.4008 169.412 26.7379 169.412 25.8857V15.4459H171.964V25.8857C171.964 28.1154 171.309 29.7822 169.999 30.8889C168.586 32.08 166.834 32.6756 164.742 32.6756C162.665 32.6756 160.921 32.08 159.509 30.8889C158.198 29.7822 157.544 28.1154 157.544 25.8857V15.4459Z" fill="#B82125"/>
<path d="M180.465 15.4459H190.036V17.7182H183.017V24.8981H189.781V27.1704H183.017V30.1984H190.266V32.47H180.465V15.4459H180.465Z" fill="#B82125"/>
<path d="M286.207 15.4459H295.778V17.7182H288.759V24.8981H295.523V27.1704H288.759V30.1984H296.009V32.47H286.208V15.4459H286.207Z" fill="#B82125"/>
<path d="M303.639 15.4459H308.972C310.3 15.4459 311.228 15.4722 311.755 15.5232C312.724 15.6423 313.627 15.8891 314.46 16.2627C315.89 16.9093 317.038 17.9345 317.905 19.3383C318.773 20.742 319.207 22.2699 319.207 23.9204C319.207 25.3327 318.879 26.6592 318.225 27.9013C317.569 29.1434 316.663 30.1474 315.506 30.9131C313.94 31.9517 311.873 32.47 309.304 32.47H303.638V15.4459H303.639ZM306.19 30.1991H309.33C311.321 30.1991 312.878 29.8163 314.001 29.0506C315.72 27.8772 316.579 26.1586 316.579 23.8949C316.579 22.6697 316.302 21.5765 315.749 20.6158C315.196 19.6552 314.431 18.9306 313.452 18.4456C312.474 17.9607 311.006 17.7189 309.05 17.7189H306.191V30.1991H306.19Z" fill="#B82125"/>
<path d="M329.672 32.4707H327.12V15.4459H329.672V32.4707Z" fill="#B82125"/>
<path d="M348.999 29.5951H340.314L339.039 32.4707H336.461L343.633 15.4459H345.496L353 32.4707H350.346L348.999 29.5951ZM348.068 27.3235L344.553 19.3007L341.2 27.3235H348.068Z" fill="#B82125"/>
<path d="M0 15.3821H2.41195L9.37767 22.3124L16.3172 15.3821H18.6781V32.5026H16.1116V19.3872L9.37767 26.0856L2.56722 19.3872V32.5026H0V15.3821Z" fill="#B82125"/>
<path d="M260.601 15.3821H263.013L269.979 22.3124L276.917 15.3821H279.278V32.5026H276.712V19.3872L269.979 26.0856L263.167 19.3872V32.5026H260.601V15.3821Z" fill="#B82125"/>
<path d="M249.723 0C248.521 0.322816 247.351 0.715215 246.208 1.17233H246.204C235.173 5.59709 227.136 16.0243 226 28.4806C224.865 16.0243 216.827 5.59709 205.796 1.17233H205.792C204.649 0.715215 203.479 0.322816 202.277 0C200.416 0.31877 199 1.96198 199 3.94094C199 4.15858 199.018 4.36973 199.05 4.57361C199.551 5.36649 200.011 6.1885 200.438 7.0283H200.443C200.443 7.0283 200.443 7.03235 200.447 7.03235C202.067 10.2217 203.187 13.7168 203.697 17.4118C202.904 18.6909 202.45 20.2006 202.45 21.8244C202.45 23.4725 202.919 25.0048 203.729 26.2921C204.962 28.2573 206.984 29.661 209.342 30.0445C206.447 31.3285 204.425 34.2629 204.425 37.6691C204.425 42.2702 208.103 46 212.637 46C214.18 46 215.623 45.5712 216.857 44.818C217.526 42.3722 218.923 40.2306 220.794 38.6521C222.228 37.4377 223.939 36.5575 225.824 36.1189C225.955 36.0971 226.055 36.0971 226.175 36.1189C228.059 36.5575 229.77 37.4377 231.204 38.6521C233.076 40.2306 234.474 42.3722 235.142 44.818C236.376 45.5712 237.819 46 239.363 46C243.896 46 247.575 42.2702 247.575 37.6691C247.575 34.2629 245.553 31.3285 242.658 30.0445C245.016 29.661 247.037 28.2573 248.271 26.2921C249.081 25.004 249.55 23.4725 249.55 21.8244C249.55 20.2006 249.094 18.6909 248.303 17.4118C248.812 13.7168 249.933 10.2217 251.552 7.03235C251.556 7.03235 251.556 7.0283 251.556 7.0283H251.562C251.991 6.1885 252.449 5.36649 252.95 4.57361C252.982 4.36973 253 4.15777 253 3.94094C253 1.96198 251.584 0.31877 249.723 0Z" fill="url(#paint0_linear_80_82)"/>
<defs>
<linearGradient id="paint0_linear_80_82" x1="199" y1="23.0001" x2="253" y2="23.0001" gradientUnits="userSpaceOnUse">
<stop stop-color="#E93E3A"/>
<stop offset="1" stop-color="#BF192F"/>
</linearGradient>
</defs>
</svg>
