<svg width="68" height="57" viewBox="0 0 68 57" fill="none" xmlns="http://www.w3.org/2000/svg">
<path d="M63.565 0C62.059 0.399 60.593 0.884005 59.16 1.44901H59.155C45.332 6.918 35.259 19.806 33.836 35.202C32.414 19.806 22.341 6.918 8.517 1.44901H8.512C7.079 0.884005 5.613 0.399 4.107 0C1.774 0.394 0 2.425 0 4.871C0 5.14 0.0220035 5.401 0.0630035 5.653C0.690004 6.633 1.267 7.64901 1.802 8.68701H1.808C1.808 8.68701 1.808 8.692 1.813 8.692C3.843 12.634 5.247 16.954 5.886 21.521C4.893 23.102 4.323 24.968 4.323 26.975C4.323 29.012 4.911 30.906 5.926 32.497C7.472 34.926 10.005 36.661 12.96 37.135C9.332 38.722 6.799 42.349 6.799 46.559C6.799 52.246 11.408 56.856 17.09 56.856C19.023 56.856 20.832 56.326 22.378 55.395C23.216 52.372 24.967 49.725 27.312 47.774C29.109 46.273 31.253 45.185 33.616 44.643C33.78 44.616 33.905 44.616 34.055 44.643C36.416 45.185 38.561 46.273 40.358 47.774C42.703 49.725 44.455 52.372 45.293 55.395C46.839 56.326 48.647 56.856 50.582 56.856C56.263 56.856 60.873 52.246 60.873 46.559C60.873 42.349 58.34 38.722 54.712 37.135C57.667 36.661 60.199 34.926 61.746 32.497C62.761 30.905 63.348 29.012 63.348 26.975C63.348 24.968 62.777 23.102 61.786 21.521C62.424 16.954 63.828 12.634 65.857 8.692C65.863 8.692 65.863 8.68701 65.863 8.68701H65.87C66.407 7.64901 66.982 6.633 67.609 5.653C67.65 5.401 67.672 5.139 67.672 4.871C67.672 2.424 65.897 0.393 63.565 0Z" fill="url(#paint0_linear_80_81)"/>
<defs>
<linearGradient id="paint0_linear_80_81" x1="-0.0001" y1="28.4278" x2="67.6718" y2="28.4278" gradientUnits="userSpaceOnUse">
<stop stop-color="#E93E3A"/>
<stop offset="0.3126" stop-color="#E33B37"/>
<stop offset="0.6059" stop-color="#D53331"/>
<stop offset="0.8907" stop-color="#C12728"/>
<stop offset="1" stop-color="#B82125"/>
</linearGradient>
</defs>
</svg>
