<svg width="172" height="96" viewBox="0 0 172 96" fill="none" xmlns="http://www.w3.org/2000/svg">
<path d="M135.713 7.62939e-06C133.194 0.667719 130.739 1.47936 128.343 2.42486H128.335C105.202 11.577 88.3457 33.1446 85.9644 58.9092C83.5847 33.1446 66.7279 11.577 43.5939 2.42486H43.5856C41.1875 1.47936 38.7342 0.667719 36.214 7.62939e-06C32.3098 0.659352 29.3411 4.05816 29.3411 8.15145C29.3411 8.60161 29.3779 9.03838 29.4465 9.46009C30.4958 11.1001 31.4613 12.8003 32.3566 14.5374H32.3667C32.3667 14.5374 32.3667 14.5457 32.3751 14.5457C35.7722 21.1425 38.1217 28.3719 39.1911 36.0146C37.5293 38.6603 36.5754 41.783 36.5754 45.1417C36.5754 48.5505 37.5594 51.72 39.258 54.3825C41.8452 58.4474 46.0841 61.3508 51.0291 62.144C44.9578 64.7998 40.7189 70.8695 40.7189 77.9148C40.7189 87.4317 48.4319 95.1464 57.9406 95.1464C61.1754 95.1464 64.2026 94.2595 66.7898 92.7015C68.1922 87.6426 71.1224 83.2129 75.0467 79.948C78.0539 77.4362 81.6418 75.6154 85.5962 74.7084C85.8706 74.6632 86.0798 74.6632 86.3308 74.7084C90.2819 75.6154 93.8715 77.4362 96.8787 79.948C100.803 83.2129 103.735 87.6426 105.137 92.7015C107.724 94.2595 110.75 95.1464 113.988 95.1464C123.495 95.1464 131.21 87.4317 131.21 77.9148C131.21 70.8695 126.971 64.7998 120.9 62.144C125.845 61.3508 130.082 58.4474 132.671 54.3825C134.369 51.7184 135.352 48.5505 135.352 45.1417C135.352 41.783 134.398 38.6603 132.738 36.0146C133.805 28.3719 136.155 21.1425 139.55 14.5457C139.56 14.5457 139.56 14.5374 139.56 14.5374H139.572C140.469 12.8003 141.433 11.1001 142.482 9.46009C142.549 9.03838 142.588 8.59993 142.588 8.15145C142.588 4.05648 139.617 0.657678 135.713 7.62939e-06Z" fill="url(#paint0_linear_178_97)"/>
<path d="M144.898 36.6874H148.399L158.509 46.7432L168.573 36.6874H172V61.5282H168.273V42.4976L158.509 52.2171L148.622 42.4976V61.5282H144.898V36.6874Z" fill="#B82125"/>
<path d="M0 36.6874H3.5009L13.6103 46.7432L23.6762 36.6874H27.1017V61.5282H23.3766V42.4976L13.6103 52.2171L3.72346 42.4976V61.5282H0.00168531V36.6874H0Z" fill="#B82125"/>
<defs>
<linearGradient id="paint0_linear_178_97" x1="29.3409" y1="47.5729" x2="142.587" y2="47.5729" gradientUnits="userSpaceOnUse">
<stop stop-color="#E93E3A"/>
<stop offset="0.3126" stop-color="#E33B37"/>
<stop offset="0.6059" stop-color="#D53331"/>
<stop offset="0.8907" stop-color="#C12728"/>
<stop offset="1" stop-color="#B82125"/>
</linearGradient>
</defs>
</svg>
